<?xml version="1.0" encoding="iso-8859-1"?>
<!-- Uploaded to: SVG Repo, www.svgrepo.com, Generator: SVG Repo Mixer Tools -->
<svg fill="#000000" height="800px" width="800px" version="1.1" id="Layer_1" xmlns="http://www.w3.org/2000/svg" xmlns:xlink="http://www.w3.org/1999/xlink" 
	 viewBox="0 0 491.52 491.52" xml:space="preserve">
<g>
	<g>
		<path d="M370.588,232.871c0,68.83-55.995,124.826-124.826,124.826c-68.83,0-124.832-55.996-124.832-124.826H79.52
			c0,84.647,63.613,154.671,145.536,164.9v93.749h41.412v-93.749C348.39,387.542,412,317.518,412,232.871H370.588z"/>
	</g>
</g>
<g>
	<g>
		<path d="M245.762,0h-0.002c-43.144,0-78.241,35.1-78.241,78.238v154.633c0,43.138,35.097,78.235,78.241,78.236h0.002
			c43.141,0,78.238-35.097,78.238-78.236V78.238C324,35.098,288.903,0,245.762,0z"/>
	</g>
</g>
</svg>