<svg xmlns="http://www.w3.org/2000/svg" width="24" height="24" fill="none" id="user-channel"><path fill="#000" fill-rule="evenodd" d="M3.5 5A1.5 1.5 0 0 1 5 3.5h14A1.5 1.5 0 0 1 20.5 5v14a1.5 1.5 0 0 1-1.5 1.5H5A1.5 1.5 0 0 1 3.5 19V5ZM5 4.5a.5.5 0 0 0-.5.5v14a.5.5 0 0 0 .5.5h14a.5.5 0 0 0 .5-.5V5a.5.5 0 0 0-.5-.5H5Z" clip-rule="evenodd"></path><path fill="#000" fill-rule="evenodd" d="M12 7.5a1.5 1.5 0 1 0 0 3 1.5 1.5 0 0 0 0-3zM9.5 9a2.5 2.5 0 1 1 5 0 2.5 2.5 0 0 1-5 0zm-.965 7.5h6.93a3.501 3.501 0 0 0-6.93 0zM7.5 17a4.5 4.5 0 1 1 9 0 .5.5 0 0 1-.5.5H8a.5.5 0 0 1-.5-.5z" clip-rule="evenodd"></path></svg>